<mxfile host="Electron" agent="Mozilla/5.0 (Windows NT 10.0; Win64; x64) AppleWebKit/537.36 (KHTML, like Gecko) draw.io/28.2.7 Chrome/138.0.7204.251 Electron/37.7.1 Safari/537.36" version="28.2.7">
  <diagram name="Page-1" id="4amrl858LahUQT3y5WV-">
    <mxGraphModel dx="1842" dy="596" grid="1" gridSize="10" guides="1" tooltips="1" connect="1" arrows="1" fold="1" page="1" pageScale="1" pageWidth="850" pageHeight="1100" math="0" shadow="0">
      <root>
        <mxCell id="0" />
        <mxCell id="1" parent="0" />
        <mxCell id="gjMMqOrohkAAdzrrXGvl-1" value="&lt;font style=&quot;font-size: 20px;&quot;&gt;&lt;b&gt;SALES DATA MART&lt;/b&gt; ( Star Schema)&amp;nbsp;&lt;/font&gt;" style="text;html=1;align=center;verticalAlign=middle;resizable=0;points=[];autosize=1;strokeColor=none;fillColor=none;" parent="1" vertex="1">
          <mxGeometry x="-100" y="35" width="360" height="40" as="geometry" />
        </mxCell>
        <mxCell id="7FAcjPqkpYb9wNG2E-n4-1" value="gold.dim_customers" style="swimlane;whiteSpace=wrap;html=1;fillColor=#e3c800;fontColor=#000000;strokeColor=#B09500;" vertex="1" parent="1">
          <mxGeometry x="-50" y="140" width="200" height="380" as="geometry" />
        </mxCell>
        <mxCell id="7FAcjPqkpYb9wNG2E-n4-7" value="&lt;b&gt;customer_id&lt;/b&gt;" style="text;html=1;whiteSpace=wrap;strokeColor=none;fillColor=none;align=center;verticalAlign=middle;rounded=0;" vertex="1" parent="7FAcjPqkpYb9wNG2E-n4-1">
          <mxGeometry x="10" y="70" width="160" height="30" as="geometry" />
        </mxCell>
        <mxCell id="7FAcjPqkpYb9wNG2E-n4-11" value="&lt;b&gt;customer_number&lt;/b&gt;" style="text;html=1;whiteSpace=wrap;strokeColor=none;fillColor=none;align=center;verticalAlign=middle;rounded=0;" vertex="1" parent="7FAcjPqkpYb9wNG2E-n4-1">
          <mxGeometry x="20" y="100" width="160" height="30" as="geometry" />
        </mxCell>
        <mxCell id="7FAcjPqkpYb9wNG2E-n4-10" value="&lt;b&gt;first_name&lt;/b&gt;" style="text;html=1;whiteSpace=wrap;strokeColor=none;fillColor=none;align=center;verticalAlign=middle;rounded=0;" vertex="1" parent="7FAcjPqkpYb9wNG2E-n4-1">
          <mxGeometry y="140" width="160" height="30" as="geometry" />
        </mxCell>
        <mxCell id="7FAcjPqkpYb9wNG2E-n4-8" value="&lt;b&gt;last_name&lt;/b&gt;" style="text;html=1;whiteSpace=wrap;strokeColor=none;fillColor=none;align=center;verticalAlign=middle;rounded=0;" vertex="1" parent="7FAcjPqkpYb9wNG2E-n4-1">
          <mxGeometry y="180" width="160" height="30" as="geometry" />
        </mxCell>
        <mxCell id="7FAcjPqkpYb9wNG2E-n4-9" value="&lt;b&gt;country&lt;/b&gt;" style="text;html=1;whiteSpace=wrap;strokeColor=none;fillColor=none;align=center;verticalAlign=middle;rounded=0;" vertex="1" parent="7FAcjPqkpYb9wNG2E-n4-1">
          <mxGeometry x="-10" y="220" width="160" height="30" as="geometry" />
        </mxCell>
        <mxCell id="7FAcjPqkpYb9wNG2E-n4-14" value="&lt;b&gt;marital_status&lt;/b&gt;" style="text;html=1;whiteSpace=wrap;strokeColor=none;fillColor=none;align=center;verticalAlign=middle;rounded=0;" vertex="1" parent="7FAcjPqkpYb9wNG2E-n4-1">
          <mxGeometry x="10" y="260" width="160" height="30" as="geometry" />
        </mxCell>
        <mxCell id="7FAcjPqkpYb9wNG2E-n4-15" value="&lt;b&gt;gender&lt;/b&gt;" style="text;html=1;whiteSpace=wrap;strokeColor=none;fillColor=none;align=center;verticalAlign=middle;rounded=0;" vertex="1" parent="7FAcjPqkpYb9wNG2E-n4-1">
          <mxGeometry x="-10" y="300" width="160" height="30" as="geometry" />
        </mxCell>
        <mxCell id="7FAcjPqkpYb9wNG2E-n4-13" value="&lt;b&gt;birthdate&lt;/b&gt;" style="text;html=1;whiteSpace=wrap;strokeColor=none;fillColor=none;align=center;verticalAlign=middle;rounded=0;" vertex="1" parent="7FAcjPqkpYb9wNG2E-n4-1">
          <mxGeometry y="340" width="160" height="30" as="geometry" />
        </mxCell>
        <mxCell id="7FAcjPqkpYb9wNG2E-n4-18" value="" style="line;strokeWidth=2;direction=south;html=1;fillColor=#e3c800;fontColor=#000000;strokeColor=#B09500;" vertex="1" parent="7FAcjPqkpYb9wNG2E-n4-1">
          <mxGeometry x="30" y="20" width="10" height="360" as="geometry" />
        </mxCell>
        <mxCell id="7FAcjPqkpYb9wNG2E-n4-37" value="" style="shape=table;startSize=0;container=1;collapsible=1;childLayout=tableLayout;fixedRows=1;rowLines=0;fontStyle=0;align=center;resizeLast=1;strokeColor=none;fillColor=none;collapsible=0;" vertex="1" parent="7FAcjPqkpYb9wNG2E-n4-1">
          <mxGeometry y="30" width="200" height="30" as="geometry" />
        </mxCell>
        <mxCell id="7FAcjPqkpYb9wNG2E-n4-38" value="" style="shape=tableRow;horizontal=0;startSize=0;swimlaneHead=0;swimlaneBody=0;fillColor=none;collapsible=0;dropTarget=0;points=[[0,0.5],[1,0.5]];portConstraint=eastwest;top=0;left=0;right=0;bottom=1;" vertex="1" parent="7FAcjPqkpYb9wNG2E-n4-37">
          <mxGeometry width="200" height="30" as="geometry" />
        </mxCell>
        <mxCell id="7FAcjPqkpYb9wNG2E-n4-39" value="PK" style="shape=partialRectangle;connectable=0;fillColor=none;top=0;left=0;bottom=0;right=0;fontStyle=1;overflow=hidden;whiteSpace=wrap;html=1;" vertex="1" parent="7FAcjPqkpYb9wNG2E-n4-38">
          <mxGeometry width="30" height="30" as="geometry">
            <mxRectangle width="30" height="30" as="alternateBounds" />
          </mxGeometry>
        </mxCell>
        <mxCell id="7FAcjPqkpYb9wNG2E-n4-40" value="&lt;b style=&quot;text-align: center;&quot;&gt;customer_key&lt;/b&gt;" style="shape=partialRectangle;connectable=0;fillColor=none;top=0;left=0;bottom=0;right=0;align=left;spacingLeft=6;fontStyle=5;overflow=hidden;whiteSpace=wrap;html=1;" vertex="1" parent="7FAcjPqkpYb9wNG2E-n4-38">
          <mxGeometry x="30" width="170" height="30" as="geometry">
            <mxRectangle width="170" height="30" as="alternateBounds" />
          </mxGeometry>
        </mxCell>
        <mxCell id="7FAcjPqkpYb9wNG2E-n4-2" value="gold.fact_sales" style="swimlane;whiteSpace=wrap;html=1;fillColor=light-dark(#b1ddf0, #074f6e);strokeColor=#10739e;" vertex="1" parent="1">
          <mxGeometry x="280" y="170" width="210" height="370" as="geometry" />
        </mxCell>
        <mxCell id="7FAcjPqkpYb9wNG2E-n4-41" value="&lt;b&gt;order_number&lt;/b&gt;" style="text;html=1;whiteSpace=wrap;strokeColor=none;fillColor=none;align=center;verticalAlign=middle;rounded=0;" vertex="1" parent="7FAcjPqkpYb9wNG2E-n4-2">
          <mxGeometry x="15" y="30" width="170" height="30" as="geometry" />
        </mxCell>
        <mxCell id="7FAcjPqkpYb9wNG2E-n4-46" value="" style="shape=table;startSize=0;container=1;collapsible=1;childLayout=tableLayout;fixedRows=1;rowLines=0;fontStyle=0;align=center;resizeLast=1;strokeColor=none;fillColor=none;collapsible=0;" vertex="1" parent="7FAcjPqkpYb9wNG2E-n4-2">
          <mxGeometry x="5" y="70" width="205" height="30" as="geometry" />
        </mxCell>
        <mxCell id="7FAcjPqkpYb9wNG2E-n4-47" value="" style="shape=tableRow;horizontal=0;startSize=0;swimlaneHead=0;swimlaneBody=0;fillColor=none;collapsible=0;dropTarget=0;points=[[0,0.5],[1,0.5]];portConstraint=eastwest;top=0;left=0;right=0;bottom=0;" vertex="1" parent="7FAcjPqkpYb9wNG2E-n4-46">
          <mxGeometry width="205" height="30" as="geometry" />
        </mxCell>
        <mxCell id="7FAcjPqkpYb9wNG2E-n4-48" value="&lt;b&gt;FK1&lt;/b&gt;" style="shape=partialRectangle;connectable=0;fillColor=none;top=0;left=0;bottom=0;right=0;fontStyle=0;overflow=hidden;whiteSpace=wrap;html=1;" vertex="1" parent="7FAcjPqkpYb9wNG2E-n4-47">
          <mxGeometry width="30" height="30" as="geometry">
            <mxRectangle width="30" height="30" as="alternateBounds" />
          </mxGeometry>
        </mxCell>
        <mxCell id="7FAcjPqkpYb9wNG2E-n4-49" value="&lt;b&gt;&amp;nbsp; &amp;nbsp; &amp;nbsp; product_key&lt;/b&gt;" style="shape=partialRectangle;connectable=0;fillColor=none;top=0;left=0;bottom=0;right=0;align=left;spacingLeft=6;fontStyle=0;overflow=hidden;whiteSpace=wrap;html=1;" vertex="1" parent="7FAcjPqkpYb9wNG2E-n4-47">
          <mxGeometry x="30" width="175" height="30" as="geometry">
            <mxRectangle width="175" height="30" as="alternateBounds" />
          </mxGeometry>
        </mxCell>
        <mxCell id="7FAcjPqkpYb9wNG2E-n4-54" value="" style="shape=table;startSize=0;container=1;collapsible=1;childLayout=tableLayout;fixedRows=1;rowLines=0;fontStyle=0;align=center;resizeLast=1;strokeColor=none;fillColor=none;collapsible=0;" vertex="1" parent="7FAcjPqkpYb9wNG2E-n4-2">
          <mxGeometry x="5" y="110" width="180" height="30" as="geometry" />
        </mxCell>
        <mxCell id="7FAcjPqkpYb9wNG2E-n4-55" value="" style="shape=tableRow;horizontal=0;startSize=0;swimlaneHead=0;swimlaneBody=0;fillColor=none;collapsible=0;dropTarget=0;points=[[0,0.5],[1,0.5]];portConstraint=eastwest;top=0;left=0;right=0;bottom=0;" vertex="1" parent="7FAcjPqkpYb9wNG2E-n4-54">
          <mxGeometry width="180" height="30" as="geometry" />
        </mxCell>
        <mxCell id="7FAcjPqkpYb9wNG2E-n4-56" value="&lt;b&gt;FK2&lt;/b&gt;" style="shape=partialRectangle;connectable=0;fillColor=none;top=0;left=0;bottom=0;right=0;fontStyle=0;overflow=hidden;whiteSpace=wrap;html=1;" vertex="1" parent="7FAcjPqkpYb9wNG2E-n4-55">
          <mxGeometry width="30" height="30" as="geometry">
            <mxRectangle width="30" height="30" as="alternateBounds" />
          </mxGeometry>
        </mxCell>
        <mxCell id="7FAcjPqkpYb9wNG2E-n4-57" value="&lt;b&gt;&amp;nbsp; &amp;nbsp; &amp;nbsp; customer_key&lt;/b&gt;" style="shape=partialRectangle;connectable=0;fillColor=none;top=0;left=0;bottom=0;right=0;align=left;spacingLeft=6;fontStyle=0;overflow=hidden;whiteSpace=wrap;html=1;" vertex="1" parent="7FAcjPqkpYb9wNG2E-n4-55">
          <mxGeometry x="30" width="150" height="30" as="geometry">
            <mxRectangle width="150" height="30" as="alternateBounds" />
          </mxGeometry>
        </mxCell>
        <mxCell id="7FAcjPqkpYb9wNG2E-n4-58" value="" style="line;strokeWidth=2;direction=south;html=1;fillColor=#b1ddf0;strokeColor=#10739e;" vertex="1" parent="7FAcjPqkpYb9wNG2E-n4-2">
          <mxGeometry x="30" width="10" height="370" as="geometry" />
        </mxCell>
        <mxCell id="7FAcjPqkpYb9wNG2E-n4-61" value="&lt;b&gt;shipping_date&lt;/b&gt;" style="text;html=1;whiteSpace=wrap;strokeColor=none;fillColor=none;align=center;verticalAlign=middle;rounded=0;" vertex="1" parent="7FAcjPqkpYb9wNG2E-n4-2">
          <mxGeometry x="52.5" y="190" width="105" height="30" as="geometry" />
        </mxCell>
        <mxCell id="7FAcjPqkpYb9wNG2E-n4-59" value="&lt;b&gt;order_date&lt;/b&gt;" style="text;html=1;whiteSpace=wrap;strokeColor=none;fillColor=none;align=center;verticalAlign=middle;rounded=0;" vertex="1" parent="7FAcjPqkpYb9wNG2E-n4-2">
          <mxGeometry x="42.5" y="150" width="105" height="30" as="geometry" />
        </mxCell>
        <mxCell id="7FAcjPqkpYb9wNG2E-n4-60" value="&lt;b&gt;due_date&lt;/b&gt;" style="text;html=1;whiteSpace=wrap;strokeColor=none;fillColor=none;align=center;verticalAlign=middle;rounded=0;" vertex="1" parent="7FAcjPqkpYb9wNG2E-n4-2">
          <mxGeometry x="42.5" y="230" width="105" height="30" as="geometry" />
        </mxCell>
        <mxCell id="7FAcjPqkpYb9wNG2E-n4-62" value="&lt;b&gt;sales_amount&lt;/b&gt;" style="text;html=1;whiteSpace=wrap;strokeColor=none;fillColor=none;align=center;verticalAlign=middle;rounded=0;" vertex="1" parent="7FAcjPqkpYb9wNG2E-n4-2">
          <mxGeometry x="42.5" y="270" width="105" height="30" as="geometry" />
        </mxCell>
        <mxCell id="7FAcjPqkpYb9wNG2E-n4-63" value="&lt;b&gt;quantity&lt;/b&gt;" style="text;html=1;whiteSpace=wrap;strokeColor=none;fillColor=none;align=center;verticalAlign=middle;rounded=0;" vertex="1" parent="7FAcjPqkpYb9wNG2E-n4-2">
          <mxGeometry x="42.5" y="310" width="105" height="30" as="geometry" />
        </mxCell>
        <mxCell id="7FAcjPqkpYb9wNG2E-n4-64" value="&lt;b&gt;price&lt;/b&gt;" style="text;html=1;whiteSpace=wrap;strokeColor=none;fillColor=none;align=center;verticalAlign=middle;rounded=0;" vertex="1" parent="7FAcjPqkpYb9wNG2E-n4-2">
          <mxGeometry x="40" y="340" width="105" height="30" as="geometry" />
        </mxCell>
        <mxCell id="7FAcjPqkpYb9wNG2E-n4-3" value="gold.dim_products" style="swimlane;whiteSpace=wrap;html=1;startSize=23;fillColor=#e3c800;fontColor=#000000;strokeColor=#B09500;" vertex="1" parent="1">
          <mxGeometry x="640" y="130" width="220" height="400" as="geometry" />
        </mxCell>
        <mxCell id="7FAcjPqkpYb9wNG2E-n4-21" value="" style="line;strokeWidth=2;direction=south;html=1;fillColor=#e3c800;fontColor=#000000;strokeColor=#B09500;" vertex="1" parent="7FAcjPqkpYb9wNG2E-n4-3">
          <mxGeometry x="20" y="20" width="10" height="380" as="geometry" />
        </mxCell>
        <mxCell id="7FAcjPqkpYb9wNG2E-n4-22" value="&lt;b&gt;product_id&lt;/b&gt;" style="text;html=1;whiteSpace=wrap;strokeColor=none;fillColor=none;align=center;verticalAlign=middle;rounded=0;" vertex="1" parent="7FAcjPqkpYb9wNG2E-n4-3">
          <mxGeometry x="30" y="70" width="120" height="30" as="geometry" />
        </mxCell>
        <mxCell id="7FAcjPqkpYb9wNG2E-n4-24" value="&lt;b&gt;product&lt;/b&gt;&lt;b&gt;_name&lt;/b&gt;" style="text;html=1;whiteSpace=wrap;strokeColor=none;fillColor=none;align=center;verticalAlign=middle;rounded=0;" vertex="1" parent="7FAcjPqkpYb9wNG2E-n4-3">
          <mxGeometry x="35" y="150" width="120" height="30" as="geometry" />
        </mxCell>
        <mxCell id="7FAcjPqkpYb9wNG2E-n4-25" value="&lt;b&gt;product&lt;/b&gt;&lt;b&gt;_number&lt;/b&gt;" style="text;html=1;whiteSpace=wrap;strokeColor=none;fillColor=none;align=center;verticalAlign=middle;rounded=0;" vertex="1" parent="7FAcjPqkpYb9wNG2E-n4-3">
          <mxGeometry x="35" y="110" width="120" height="30" as="geometry" />
        </mxCell>
        <mxCell id="7FAcjPqkpYb9wNG2E-n4-26" value="&lt;b&gt;category_id&lt;/b&gt;" style="text;html=1;whiteSpace=wrap;strokeColor=none;fillColor=none;align=center;verticalAlign=middle;rounded=0;" vertex="1" parent="7FAcjPqkpYb9wNG2E-n4-3">
          <mxGeometry x="42.5" y="185" width="105" height="30" as="geometry" />
        </mxCell>
        <mxCell id="7FAcjPqkpYb9wNG2E-n4-27" value="&lt;b&gt;category&lt;/b&gt;" style="text;html=1;whiteSpace=wrap;strokeColor=none;fillColor=none;align=center;verticalAlign=middle;rounded=0;" vertex="1" parent="7FAcjPqkpYb9wNG2E-n4-3">
          <mxGeometry x="37.5" y="220" width="105" height="30" as="geometry" />
        </mxCell>
        <mxCell id="7FAcjPqkpYb9wNG2E-n4-28" value="&lt;b&gt;subcategory&lt;/b&gt;" style="text;html=1;whiteSpace=wrap;strokeColor=none;fillColor=none;align=center;verticalAlign=middle;rounded=0;" vertex="1" parent="7FAcjPqkpYb9wNG2E-n4-3">
          <mxGeometry x="42.5" y="250" width="105" height="30" as="geometry" />
        </mxCell>
        <mxCell id="7FAcjPqkpYb9wNG2E-n4-29" value="&lt;b&gt;maintenance&lt;/b&gt;" style="text;html=1;whiteSpace=wrap;strokeColor=none;fillColor=none;align=center;verticalAlign=middle;rounded=0;" vertex="1" parent="7FAcjPqkpYb9wNG2E-n4-3">
          <mxGeometry x="37.5" y="280" width="105" height="30" as="geometry" />
        </mxCell>
        <mxCell id="7FAcjPqkpYb9wNG2E-n4-30" value="&lt;b&gt;cost&lt;/b&gt;" style="text;html=1;whiteSpace=wrap;strokeColor=none;fillColor=none;align=center;verticalAlign=middle;rounded=0;" vertex="1" parent="7FAcjPqkpYb9wNG2E-n4-3">
          <mxGeometry x="42.5" y="310" width="80" height="30" as="geometry" />
        </mxCell>
        <mxCell id="7FAcjPqkpYb9wNG2E-n4-31" value="&lt;b&gt;product_line&lt;/b&gt;" style="text;html=1;whiteSpace=wrap;strokeColor=none;fillColor=none;align=center;verticalAlign=middle;rounded=0;" vertex="1" parent="7FAcjPqkpYb9wNG2E-n4-3">
          <mxGeometry x="37.5" y="340" width="105" height="30" as="geometry" />
        </mxCell>
        <mxCell id="7FAcjPqkpYb9wNG2E-n4-32" value="&lt;b&gt;start_date&lt;/b&gt;" style="text;html=1;whiteSpace=wrap;strokeColor=none;fillColor=none;align=center;verticalAlign=middle;rounded=0;" vertex="1" parent="7FAcjPqkpYb9wNG2E-n4-3">
          <mxGeometry x="37.5" y="370" width="105" height="30" as="geometry" />
        </mxCell>
        <mxCell id="7FAcjPqkpYb9wNG2E-n4-33" value="" style="shape=table;startSize=0;container=1;collapsible=1;childLayout=tableLayout;fixedRows=1;rowLines=0;fontStyle=0;align=center;resizeLast=1;strokeColor=none;fillColor=none;collapsible=0;" vertex="1" parent="7FAcjPqkpYb9wNG2E-n4-3">
          <mxGeometry y="30" width="220" height="30" as="geometry" />
        </mxCell>
        <mxCell id="7FAcjPqkpYb9wNG2E-n4-34" value="" style="shape=tableRow;horizontal=0;startSize=0;swimlaneHead=0;swimlaneBody=0;fillColor=none;collapsible=0;dropTarget=0;points=[[0,0.5],[1,0.5]];portConstraint=eastwest;top=0;left=0;right=0;bottom=1;" vertex="1" parent="7FAcjPqkpYb9wNG2E-n4-33">
          <mxGeometry width="220" height="30" as="geometry" />
        </mxCell>
        <mxCell id="7FAcjPqkpYb9wNG2E-n4-35" value="PK" style="shape=partialRectangle;connectable=0;fillColor=none;top=0;left=0;bottom=0;right=0;fontStyle=1;overflow=hidden;whiteSpace=wrap;html=1;" vertex="1" parent="7FAcjPqkpYb9wNG2E-n4-34">
          <mxGeometry width="30" height="30" as="geometry">
            <mxRectangle width="30" height="30" as="alternateBounds" />
          </mxGeometry>
        </mxCell>
        <mxCell id="7FAcjPqkpYb9wNG2E-n4-36" value="product_key" style="shape=partialRectangle;connectable=0;fillColor=none;top=0;left=0;bottom=0;right=0;align=left;spacingLeft=6;fontStyle=5;overflow=hidden;whiteSpace=wrap;html=1;" vertex="1" parent="7FAcjPqkpYb9wNG2E-n4-34">
          <mxGeometry x="30" width="190" height="30" as="geometry">
            <mxRectangle width="190" height="30" as="alternateBounds" />
          </mxGeometry>
        </mxCell>
        <mxCell id="7FAcjPqkpYb9wNG2E-n4-66" value="" style="edgeStyle=entityRelationEdgeStyle;fontSize=12;html=1;endArrow=ERzeroToMany;startArrow=ERmandOne;rounded=0;entryX=0;entryY=0.5;entryDx=0;entryDy=0;exitX=1;exitY=0.5;exitDx=0;exitDy=0;" edge="1" parent="1" source="7FAcjPqkpYb9wNG2E-n4-38" target="7FAcjPqkpYb9wNG2E-n4-55">
          <mxGeometry width="100" height="100" relative="1" as="geometry">
            <mxPoint x="200" y="180" as="sourcePoint" />
            <mxPoint x="300" y="80" as="targetPoint" />
          </mxGeometry>
        </mxCell>
        <mxCell id="7FAcjPqkpYb9wNG2E-n4-69" value="" style="edgeStyle=entityRelationEdgeStyle;fontSize=12;html=1;endArrow=ERzeroToMany;startArrow=ERmandOne;rounded=0;exitX=0;exitY=0.5;exitDx=0;exitDy=0;entryX=1;entryY=0.25;entryDx=0;entryDy=0;" edge="1" parent="1" source="7FAcjPqkpYb9wNG2E-n4-34" target="7FAcjPqkpYb9wNG2E-n4-2">
          <mxGeometry width="100" height="100" relative="1" as="geometry">
            <mxPoint x="590" y="150" as="sourcePoint" />
            <mxPoint x="530" y="230" as="targetPoint" />
            <Array as="points">
              <mxPoint x="520" y="310" />
              <mxPoint x="490" y="230" />
            </Array>
          </mxGeometry>
        </mxCell>
      </root>
    </mxGraphModel>
  </diagram>
</mxfile>
